<svg xmlns="http://www.w3.org/2000/svg" xmlns:xlink="http://www.w3.org/1999/xlink" width="350" height="90" viewBox="0 0 350 90">
  <defs>
    <clipPath id="clip-Mesa_de_trabajo_5">
      <rect width="350" height="90"/>
    </clipPath>
  </defs>
  <g id="Mesa_de_trabajo_5" data-name="Mesa de trabajo – 5" clip-path="url(#clip-Mesa_de_trabajo_5)">
    <g id="D_Brand_Icon" data-name="D / Brand Icon" transform="translate(0)">
      <path id="Trazado_38" data-name="Trazado 38" d="M451.513,207.5l-3.59,13.593h-7.085l-14.02,14.285h17.291l-6.019,22.348c-4.112,13.844.03,24.044,11.594,24.362a56.6,56.6,0,0,0,12.616-1.328l3.394-12.784c-10.682,1.027-12.233-2.6-9.544-12.4l5.424-20.194h12.014l3.84-14.285H465.35l3.631-13.593Z" transform="translate(-232.674 -207.5)" fill="#FFFFFFDE" fill-rule="evenodd"/>
      <path id="Trazado_39" data-name="Trazado 39" d="M614.359,276.546l3.108-11.961c3.4-11.929,10.578-19.289,23.629-19.811l4.909-17.741h-1.215c-14.318,0-22.684,13.185-22.684,13.185l3.141-11.726H609.979L594,288.178c1.111,0,2.043,0,3.133,0C604.467,288.213,611.633,287.028,614.359,276.546Z" transform="translate(-296.005 -214.9)" fill="#FFFFFFDE" fill-rule="evenodd"/>
      <path id="Trazado_40" data-name="Trazado 40" d="M262.067,264.859c19.409,0,30.864-6.709,31.591-19.393,0-10.425-8.317-18.432-20.912-18.432-22.35,0-37.745,18.048-38.8,36.4C233,280.026,242.2,289.7,260.014,289.7c6.758,0,22.547-2.15,23.775-18.2-5.132,2.458-12.02,5.061-18.856,5.061-7.518-.062-15.715-3.445-14.7-11.7ZM252.3,252.151c1.254-4.453,8.251-12.06,17.543-12.06,4.378,0,8.167,2.073,8.013,4.761l-.009.154c-.243,4.261-4.682,6.685-14.847,7.145Z" transform="translate(-159.588 -214.9)" fill="#FFFFFFDE" fill-rule="evenodd"/>
      <path id="Trazado_41" data-name="Trazado 41" d="M531.282,264.859c19.409,0,30.863-6.709,31.59-19.393,0-10.425-8.317-18.432-20.911-18.432-22.35,0-37.745,18.048-38.8,36.4-.952,16.589,8.247,26.266,26.064,26.266,6.758,0,22.547-2.15,23.775-18.2-5.132,2.458-12.021,5.061-18.857,5.061-7.518-.062-15.715-3.445-14.7-11.7Zm-9.765-12.708c1.255-4.453,8.251-12.06,17.544-12.06,4.378,0,8.167,2.073,8.013,4.761l-.008.154c-.245,4.261-4.682,6.685-14.848,7.145Z" transform="translate(-261.57 -214.9)" fill="#FFFFFFDE" fill-rule="evenodd"/>
      <path id="Trazado_42" data-name="Trazado 42" d="M145.818,230.266l-9.1,34.272h3.071c9.754,0,24.289-7.095,27.8-24.615,2.625-13.1-4.333-16.525-11.445-16.525h-29.9l4.3-15.9h28.351c12.555,0,20.679,3.957,24.825,13.6a34.357,34.357,0,0,1,2.36,17.308c-4.254,33.611-32.242,42.976-53.286,42.976H114.282l9.007-34.095C127.162,232.705,138.839,230.266,145.818,230.266Z" transform="translate(-114.282 -207.5)" fill="#FFFFFFDE" fill-rule="evenodd"/>
      <path id="Trazado_43" data-name="Trazado 43" d="M380.378,229.212h-20.6l-16.462,16.894-8.56-16.894H316.836L331.525,258.2,285.4,305.541H306l32.568-33.425,8.528,16.831h17.916L350.36,260.019Z" transform="translate(-179.103 -215.725)" fill="#FFFFFFDE" fill-rule="evenodd"/>
    </g>
  </g>
</svg>
